<?xml version="1.0" encoding="UTF-8" standalone="no" ?>
<!DOCTYPE svg PUBLIC "-//W3C//DTD SVG 1.1//EN" "http://www.w3.org/Graphics/SVG/1.1/DTD/svg11.dtd">
<svg xmlns="http://www.w3.org/2000/svg" xmlns:xlink="http://www.w3.org/1999/xlink" version="1.1" width="1280" height="1024" viewBox="0 0 1280 1024" xml:space="preserve">
<desc>Created with Fabric.js 5.3.0</desc>
<defs>
</defs>
<g transform="matrix(1 0 0 1 640 512)" id="background-logo"  >
<rect style="stroke: none; stroke-width: 0; stroke-dasharray: none; stroke-linecap: butt; stroke-dashoffset: 0; stroke-linejoin: miter; stroke-miterlimit: 4; fill: rgb(255,255,255); fill-opacity: 0; fill-rule: nonzero; opacity: 1;"  paint-order="stroke"  x="-640" y="-512" rx="0" ry="0" width="1280" height="1024" />
</g>
<g transform="matrix(1.9211538461538462 0 0 1.9211538461538462 640 395.6864080388972)" id="logo-logo"  >
<g style=""  paint-order="stroke"   >
		<g transform="matrix(0.917930923744532 0 0 0.9179309237445321 0 0)"  >
<g style=""  paint-order="stroke"   >
		<g transform="matrix(1 0 0 1 0 0)"  >
<linearGradient id="SVGID_303245_483852" gradientUnits="userSpaceOnUse" gradientTransform="matrix(1 0 0 1 -100 -100)"  x1="0" y1="0" x2="0" y2="200">
<stop offset="0%" style="stop-color:rgb(23,234,217);stop-opacity: 1"/>
<stop offset="100%" style="stop-color:rgb(96,120,234);stop-opacity: 1"/>
</linearGradient>
<polygon style="stroke: none; stroke-width: 1; stroke-dasharray: none; stroke-linecap: butt; stroke-dashoffset: 0; stroke-linejoin: miter; stroke-miterlimit: 4; fill: url(#SVGID_303245_483852); fill-rule: nonzero; opacity: 1;"  paint-order="stroke"  points="100,100 0,100 0,95.12 95.12,95.12 95.12,-95.12 -95.12,-95.12 -95.12,0 -100,0 -100,-100 100,-100 100,100 " />
</g>
</g>
</g>
</g>
</g>
<g transform="matrix(1.9211538461538462 0 0 1.9211538461538462 640 398.7294541578877)" id="tagline-3a78d944-c0db-44d4-8ad5-60158c925687-logo"  >
<g style=""  paint-order="stroke"   >
		<g transform="matrix(1 0 0 1 0 0)" id="tagline-3a78d944-c0db-44d4-8ad5-60158c925687-logo-path-0"  >
<linearGradient id="SVGID_483853" gradientUnits="userSpaceOnUse" gradientTransform="matrix(1 0 0 1 9.199999999999998 -64.4)"  x1="-9.164606552915075" y1="-16.480879999999985" x2="-9.164606552915075" y2="87.51912000000002">
<stop offset="0%" style="stop-color:rgb(23,234,217);stop-opacity: 1"/>
<stop offset="100%" style="stop-color:rgb(96,120,234);stop-opacity: 1"/>
</linearGradient>
<path style="stroke: rgb(255,255,255); stroke-width: 0; stroke-dasharray: none; stroke-linecap: butt; stroke-dashoffset: 0; stroke-linejoin: miter; stroke-miterlimit: 4; fill: url(#SVGID_483853); fill-rule: nonzero; opacity: 1;"  paint-order="stroke"  transform=" translate(-24.839999999999996, 32.2)" d="M 9.2 -64.4 L 9.2 0 L 15.64 0 L 15.64 -30.36 L 34.04 -30.36 L 34.04 0 L 40.48 0 L 40.48 -64.4 L 34.04 -64.4 L 34.04 -35.88 L 15.64 -35.88 L 15.64 -64.4 Z" stroke-linecap="round" />
</g>
</g>
</g>
</svg>